<?xml version="1.0" encoding="utf-8"?>
<!-- Generator: Adobe Illustrator 16.0.0, SVG Export Plug-In . SVG Version: 6.00 Build 0)  -->
<!DOCTYPE svg PUBLIC "-//W3C//DTD SVG 1.1//EN" "http://www.w3.org/Graphics/SVG/1.1/DTD/svg11.dtd">
<svg version="1.1" id="Layer_1" xmlns="http://www.w3.org/2000/svg" xmlns:xlink="http://www.w3.org/1999/xlink" x="0px" y="0px"
	 width="300px" height="300px" viewBox="0 0 300 300" enable-background="new 0 0 300 300" xml:space="preserve">
<path fill="#40E348" d="M273.429,204.268h-76.427v-58.433c0-3.236-2.625-5.859-5.859-5.859h-82.287
	c-3.236,0-5.859,2.623-5.859,5.859v26.287H26.57c-3.236,0-5.859,2.623-5.859,5.859v116.16c0,3.236,2.623,5.859,5.859,5.859h246.858
	c3.236,0,5.859-2.623,5.859-5.859v-84.014C279.288,206.891,276.665,204.268,273.429,204.268z M32.43,183.84h70.566v104.441H32.43
	V183.84z M114.715,151.693h70.568v136.588h-70.568V151.693z M267.569,288.281h-70.567v-72.295h70.567V288.281z"/>
<path fill="#40E348" d="M150,182.847c-0.38,0-0.769-0.038-1.142-0.116c-0.375-0.076-0.744-0.188-1.097-0.334
	c-0.357-0.146-0.696-0.328-1.014-0.539c-0.323-0.21-0.62-0.457-0.891-0.725c-0.27-0.271-0.515-0.574-0.726-0.893
	c-0.21-0.323-0.394-0.662-0.54-1.012c-0.146-0.353-0.263-0.721-0.334-1.097c-0.076-0.382-0.117-0.763-0.117-1.142
	c0-0.387,0.041-0.77,0.117-1.149c0.071-0.376,0.188-0.744,0.334-1.097c0.146-0.35,0.323-0.691,0.54-1.012
	c0.211-0.318,0.456-0.615,0.726-0.885c0.271-0.277,0.568-0.518,0.891-0.732c0.318-0.211,0.657-0.395,1.014-0.541
	c0.353-0.146,0.721-0.256,1.097-0.332c0.755-0.152,1.529-0.152,2.284,0c0.376,0.076,0.743,0.186,1.101,0.332
	c0.353,0.146,0.691,0.33,1.01,0.541c0.322,0.215,0.62,0.455,0.891,0.732c0.27,0.27,0.515,0.566,0.725,0.885
	c0.211,0.32,0.395,0.662,0.541,1.012c0.146,0.353,0.263,0.721,0.338,1.097c0.078,0.38,0.113,0.763,0.113,1.149
	c0,0.379-0.037,0.76-0.117,1.142c-0.071,0.376-0.188,0.744-0.334,1.097c-0.146,0.35-0.33,0.691-0.541,1.012
	c-0.21,0.315-0.455,0.622-0.725,0.893c-0.271,0.268-0.568,0.515-0.891,0.725c-0.318,0.211-0.657,0.393-1.01,0.539
	c-0.357,0.146-0.725,0.258-1.101,0.334C150.766,182.806,150.379,182.847,150,182.847z"/>
<path fill="#40E348" d="M150,264.9c-3.236,0-5.859-2.625-5.859-5.859v-60.184c0-3.236,2.623-5.859,5.859-5.859
	c3.237,0,5.86,2.623,5.86,5.859v60.184C155.859,262.275,153.236,264.9,150,264.9z"/>
<path fill="#40E348" d="M56.95,264.9c-3.236,0-5.859-2.625-5.859-5.859v-23.865c0-3.236,2.623-5.859,5.859-5.859
	s5.859,2.623,5.859,5.859v23.865C62.809,262.275,60.186,264.9,56.95,264.9z"/>
<path fill="#40E348" d="M77.073,264.9c-3.236,0-5.859-2.625-5.859-5.859v-23.865c0-3.236,2.623-5.859,5.859-5.859
	c3.234,0,5.859,2.623,5.859,5.859v23.865C82.933,262.275,80.31,264.9,77.073,264.9z"/>
<path fill="#40E348" d="M212.396,264.9c-3.236,0-5.859-2.625-5.859-5.859v-23.865c0-3.236,2.623-5.859,5.859-5.859
	c3.234,0,5.859,2.623,5.859,5.859v23.865C218.256,262.275,215.634,264.9,212.396,264.9z"/>
<path fill="#40E348" d="M232.285,264.9c-3.234,0-5.859-2.625-5.859-5.859v-23.865c0-3.236,2.625-5.859,5.859-5.859
	c3.236,0,5.859,2.623,5.859,5.859v23.865C238.145,262.275,235.521,264.9,232.285,264.9z"/>
<path fill="#40E348" d="M252.172,264.9c-3.234,0-5.859-2.625-5.859-5.859v-23.865c0-3.236,2.625-5.859,5.859-5.859
	c3.236,0,5.859,2.623,5.859,5.859v23.865C258.031,262.275,255.408,264.9,252.172,264.9z"/>
<path fill="#40E348" d="M257.004,153.439c-0.76,0-1.521-0.146-2.243-0.445l-17.933-7.432l-17.931,7.432
	c-1.884,0.78-4.038,0.525-5.688-0.674c-1.65-1.196-2.557-3.167-2.396-5.2l1.524-19.35l-12.609-14.758
	c-1.325-1.552-1.748-3.678-1.117-5.617c0.63-1.941,2.223-3.413,4.205-3.889l18.878-4.527l10.138-16.553
	c1.064-1.737,2.957-2.799,4.996-2.799s3.932,1.062,4.996,2.799l10.14,16.553l18.876,4.527c1.982,0.476,3.575,1.948,4.207,3.889
	c0.629,1.938,0.206,4.065-1.119,5.617l-12.609,14.758l1.527,19.35c0.16,2.033-0.749,4.003-2.399,5.2
	C259.43,153.061,258.222,153.439,257.004,153.439z M236.828,133.36c0.762,0,1.524,0.149,2.243,0.446l11.339,4.701l-0.967-12.236
	c-0.121-1.55,0.379-3.085,1.388-4.267l7.974-9.332l-11.936-2.863c-1.514-0.364-2.817-1.312-3.63-2.639l-6.411-10.465l-6.408,10.465
	c-0.813,1.327-2.12,2.275-3.631,2.639l-11.936,2.863l7.972,9.332c1.012,1.181,1.511,2.717,1.387,4.267l-0.964,12.236l11.34-4.701
	C235.304,133.509,236.066,133.36,236.828,133.36z"/>
<path fill="#40E348" d="M42.995,153.439c-1.218,0-2.426-0.379-3.445-1.119c-1.648-1.196-2.557-3.167-2.396-5.2l1.527-19.35
	l-12.612-14.758c-1.323-1.552-1.746-3.678-1.117-5.617c0.629-1.941,2.223-3.413,4.205-3.889l18.878-4.527l10.14-16.553
	c1.064-1.737,2.957-2.799,4.997-2.799c2.037,0,3.93,1.062,4.994,2.799l10.14,16.553l18.875,4.527
	c1.984,0.476,3.578,1.948,4.207,3.889c0.629,1.938,0.206,4.065-1.119,5.617l-12.609,14.758l1.527,19.35
	c0.16,2.033-0.746,4.003-2.396,5.2c-1.65,1.202-3.804,1.454-5.688,0.674l-17.933-7.432l-17.931,7.432
	C44.517,153.293,43.752,153.439,42.995,153.439z M41.193,112.672l7.975,9.331c1.009,1.184,1.508,2.719,1.385,4.269l-0.964,12.233
	l11.339-4.699c1.435-0.595,3.049-0.595,4.486,0l11.338,4.699l-0.966-12.233c-0.121-1.552,0.378-3.085,1.387-4.269l7.972-9.331
	l-11.936-2.863c-1.511-0.362-2.817-1.31-3.627-2.637l-6.411-10.465l-6.411,10.465c-0.813,1.327-2.119,2.275-3.63,2.637
	L41.193,112.672z"/>
<path fill="#40E348" d="M212.576,20.371c-1.11-1.241-2.697-1.95-4.363-1.95H194.92l1.303-11.922c0.183-1.655-0.351-3.31-1.461-4.55
	C193.649,0.709,192.063,0,190.399,0h-80.8c-1.667,0-3.252,0.709-4.365,1.95c-1.11,1.24-1.641,2.897-1.458,4.555l1.318,11.916h-13.31
	c-1.667,0-3.252,0.709-4.365,1.95c-1.11,1.243-1.641,2.897-1.458,4.555l2.314,20.924c0.755,6.8,3.834,13.223,8.672,18.088
	c4.191,4.214,9.558,7.116,15.333,8.333c3.637,9.732,10.89,17.594,20.061,22.069l-2.861,19.805h-1.849
	c-3.234,0-5.859,2.625-5.859,5.859c0,3.236,2.625,5.859,5.859,5.859h44.732c3.236,0,5.859-2.623,5.859-5.859
	c0-3.234-2.623-5.859-5.859-5.859h-1.847L167.66,94.37c9.205-4.47,16.486-12.35,20.13-22.114c5.749-1.227,11.087-4.122,15.26-8.318
	c4.839-4.866,7.917-11.288,8.673-18.091l2.313-20.922C214.219,23.268,213.688,21.613,212.576,20.371z M99.925,44.559l-1.596-14.419
	h8.062l3.182,28.771c-1.577-0.861-3.033-1.948-4.314-3.234C102.282,52.682,100.387,48.733,99.925,44.559z M158.676,114.146h-17.354
	l2.346-16.237c2.076,0.33,4.202,0.499,6.365,0.499c2.14,0,4.244-0.167,6.296-0.487L158.676,114.146z M150.036,86.689
	c-14.589,0-26.802-10.917-28.409-25.395l-5.484-49.576h67.719l-5.42,49.566C176.836,75.769,164.623,86.689,150.036,86.689z
	 M200.074,44.554c-0.465,4.179-2.357,8.127-5.333,11.119c-1.261,1.268-2.694,2.344-4.243,3.197l3.141-28.731h8.031L200.074,44.554z"
	/>
</svg>
