<?xml version="1.0" encoding="utf-8"?>
<!-- Generator: Adobe Illustrator 16.0.0, SVG Export Plug-In . SVG Version: 6.00 Build 0)  -->
<!DOCTYPE svg PUBLIC "-//W3C//DTD SVG 1.1//EN" "http://www.w3.org/Graphics/SVG/1.1/DTD/svg11.dtd">
<svg version="1.1" id="Capa_1" xmlns="http://www.w3.org/2000/svg" xmlns:xlink="http://www.w3.org/1999/xlink" x="0px" y="0px"
	 width="300px" height="300px" viewBox="0 0 300 300" enable-background="new 0 0 300 300" xml:space="preserve">
<g>
	<g>
		<path fill="#3AC742" d="M85.767,22.391c-15.254,0-27.69,12.437-27.69,27.69V160.23c0,15.254,12.437,27.691,27.69,27.691h124.117
			l34.98,40.494c2.144,2.449,5.146,3.859,8.394,3.859c6.125,0,11.148-4.963,11.148-11.089v-33.204h7.903
			c15.255,0,27.69-12.436,27.69-27.69V50.082c0-15.254-12.436-27.69-27.69-27.69H85.767z M284.93,50.082V160.23
			c0,6.984-5.697,12.682-12.682,12.682h-15.377c-4.166,0-7.535,3.369-7.535,7.535v30.202l-30.386-35.103
			c-1.409-1.654-3.491-2.574-5.697-2.574H85.767c-6.984,0-12.681-5.697-12.681-12.681V50.082c0-6.984,5.697-12.681,12.681-12.681
			h186.481C279.232,37.4,284.93,43.098,284.93,50.082z"/>
		<path fill="#3AC742" d="M42.822,276.873c1.286,0.49,2.634,0.736,3.92,0.736c3.125,0,6.188-1.349,8.332-3.86l34.98-40.494h109.292
			c4.165,0,7.535-3.369,7.535-7.535c0-4.165-3.37-7.535-7.535-7.535H86.625c-2.206,0-4.227,0.919-5.697,2.573l-30.325,35.226
			v-30.202c0-4.166-3.37-7.535-7.535-7.535H27.69c-6.984,0-12.681-5.697-12.681-12.682V95.416c0-6.984,5.697-12.681,12.681-12.681
			c4.166,0,7.535-3.37,7.535-7.535c0-4.166-3.369-7.474-7.535-7.474C12.436,67.725,0,80.161,0,95.416v110.149
			c0,15.254,12.436,27.69,27.69,27.69h7.903v33.204C35.593,271.176,38.411,275.281,42.822,276.873z"/>
		<circle fill="#3AC742" cx="179.008" cy="107.791" r="8.944"/>
		<circle fill="#3AC742" cx="149.05" cy="107.791" r="8.944"/>
		<circle fill="#3AC742" cx="208.965" cy="107.791" r="8.944"/>
	</g>
</g>
</svg>
