<?xml version="1.0" encoding="utf-8"?>
<!-- Generator: Adobe Illustrator 16.0.0, SVG Export Plug-In . SVG Version: 6.00 Build 0)  -->
<!DOCTYPE svg PUBLIC "-//W3C//DTD SVG 1.1//EN" "http://www.w3.org/Graphics/SVG/1.1/DTD/svg11.dtd">
<svg version="1.1" id="Capa_1" xmlns="http://www.w3.org/2000/svg" xmlns:xlink="http://www.w3.org/1999/xlink" x="0px" y="0px"
	 width="300px" height="300px" viewBox="0 0 300 300" enable-background="new 0 0 300 300" xml:space="preserve">
<g>
	<path fill="#3B859C" d="M299.504,93.709c-4.379-48.199-38.494-83.168-81.189-83.168c-28.442,0-54.487,15.307-69.143,39.839
		c-14.522-24.85-39.498-39.845-67.486-39.845c-42.689,0-76.81,34.969-81.184,83.168c-0.346,2.129-1.766,13.333,2.55,31.605
		c6.219,26.355,20.585,50.328,41.535,69.31l104.516,94.846l106.309-94.84c20.949-18.988,35.316-42.955,41.535-69.316
		C301.264,107.043,299.844,95.838,299.504,93.709z M285.715,122.667c-5.678,24.071-18.838,46.001-38.021,63.378l-98.521,87.9
		l-96.831-87.877c-19.218-17.412-32.373-39.337-38.056-63.407c-4.085-17.292-2.406-27.06-2.4-27.123l0.086-0.583
		c3.75-42.228,33.065-72.881,69.714-72.881c27.042,0,50.847,16.617,62.144,43.358l5.313,12.595l5.314-12.595
		c11.117-26.332,36.182-43.353,63.863-43.353c36.643,0,65.963,30.654,69.789,73.429C288.121,95.602,289.799,105.375,285.715,122.667
		z"/>
</g>
</svg>
