<?xml version="1.0" encoding="utf-8"?>
<!-- Generator: Adobe Illustrator 16.0.0, SVG Export Plug-In . SVG Version: 6.00 Build 0)  -->
<!DOCTYPE svg PUBLIC "-//W3C//DTD SVG 1.1//EN" "http://www.w3.org/Graphics/SVG/1.1/DTD/svg11.dtd">
<svg version="1.1" id="Capa_1" xmlns="http://www.w3.org/2000/svg" xmlns:xlink="http://www.w3.org/1999/xlink" x="0px" y="0px"
	 width="300px" height="300px" viewBox="0 0 300 300" enable-background="new 0 0 300 300" xml:space="preserve">
<g>
	<path fill="#5A5D61" d="M297.373,284.701l-72.905-72.905c19.557-22.483,31.397-51.817,31.397-83.88
		C255.865,57.339,198.459,0,127.949,0C57.373,0,0.033,57.406,0.033,127.916c0,70.51,57.406,127.917,127.916,127.917
		c32.063,0,61.396-11.841,83.88-31.397l72.905,72.905c1.729,1.729,4.057,2.66,6.318,2.66s4.59-0.865,6.32-2.66
		C300.832,293.881,300.832,288.16,297.373,284.701z M17.927,127.916c0-60.665,49.357-109.956,109.956-109.956
		c60.666,0,109.956,49.357,109.956,109.956c0,60.599-49.29,110.022-109.956,110.022C67.284,237.938,17.927,188.581,17.927,127.916z"
		/>
</g>
</svg>
