<?xml version="1.0" encoding="utf-8"?>
<!-- Generator: Adobe Illustrator 16.0.0, SVG Export Plug-In . SVG Version: 6.00 Build 0)  -->
<!DOCTYPE svg PUBLIC "-//W3C//DTD SVG 1.1//EN" "http://www.w3.org/Graphics/SVG/1.1/DTD/svg11.dtd">
<svg version="1.1" id="Layer_1" xmlns="http://www.w3.org/2000/svg" xmlns:xlink="http://www.w3.org/1999/xlink" x="0px" y="0px"
	 width="300px" height="300px" viewBox="0 0 300 300" enable-background="new 0 0 300 300" xml:space="preserve">
<g>
	<g>
		<path fill="#328343" d="M298.553,20.507c-1.342-1.309-3.326-1.713-5.072-1.034L3.055,132.266c-1.727,0.67-2.911,2.275-3.042,4.122
			s0.812,3.603,2.425,4.512l60.187,33.912l20.889,102.104c0.13,0.723,0.424,1.395,0.845,1.972c0.042,0.058,0.077,0.103,0.112,0.147
			c0.736,0.92,1.779,1.563,2.996,1.758c0.155,0.024,0.311,0.042,0.466,0.051c0.1,0.007,0.2,0.01,0.299,0.01
			c0.914,0,1.779-0.261,2.517-0.72c0.25-0.154,0.487-0.333,0.707-0.536c0.069-0.063,0.128-0.12,0.187-0.18l45.306-45.421
			c1.867-1.872,1.863-4.903-0.009-6.771c-1.874-1.868-4.903-1.863-6.771,0.009l-35.589,35.68l7.689-65.855l108.688,59.656
			c1.095,0.598,2.311,0.726,3.426,0.457c0.122-0.03,0.234-0.062,0.345-0.097c1.101-0.357,2.065-1.1,2.681-2.166
			c0.03-0.056,0.059-0.105,0.085-0.155c0.124-0.237,0.224-0.469,0.303-0.704l81.923-228.497
			C300.352,23.787,299.896,21.814,298.553,20.507z M15.956,137.526l237.382-92.192L66.705,166.119L15.956,137.526z M95.344,185.704
			c-0.448,0.359-0.837,0.806-1.142,1.329c-0.04,0.068-0.078,0.137-0.114,0.207c-0.291,0.562-0.459,1.155-0.515,1.75l-6.64,56.869
			l-14.711-71.905L233.416,69.633L95.344,185.704z M210.648,245.621l-103.877-57.016L284.723,39.008L210.648,245.621z"/>
	</g>
</g>
</svg>
