<?xml version="1.0" encoding="utf-8"?>
<!-- Generator: Adobe Illustrator 16.0.0, SVG Export Plug-In . SVG Version: 6.00 Build 0)  -->
<!DOCTYPE svg PUBLIC "-//W3C//DTD SVG 1.1//EN" "http://www.w3.org/Graphics/SVG/1.1/DTD/svg11.dtd">
<svg version="1.1" id="Layer_1" xmlns="http://www.w3.org/2000/svg" xmlns:xlink="http://www.w3.org/1999/xlink" x="0px" y="0px"
	 width="400px" height="496px" viewBox="0 0 400 496" enable-background="new 0 0 400 496" xml:space="preserve">
<path fill="#328343" d="M352.063,0H47.938C21.504,0,0,21.504,0,47.938V302.91c0,13.035,5.406,25.676,14.832,34.676l152.063,145.148
	C175.848,491.289,187.602,496,200,496s24.152-4.711,33.098-13.258l152.07-145.156c9.426-9,14.832-21.641,14.832-34.676V47.938
	C400,21.504,378.496,0,352.063,0z M384,302.91c0,8.684-3.602,17.105-9.879,23.098L222.039,471.176
	c-11.902,11.391-32.168,11.398-44.086-0.008L25.879,326.008C19.602,320.016,16,311.594,16,302.91V47.938
	C16,30.328,30.328,16,47.938,16h304.125C369.672,16,384,30.328,384,47.938V302.91z"/>
<path fill="#328343" d="M200,292.977L51.184,152H32v155.441l148.695,140.863C185.93,453.266,192.785,456,200,456
	s14.07-2.734,19.305-7.695L368,307.441V152h-19.184L200,292.977z M352,228.566L200,372.969l-82.496-78.367l-11.016,11.59
	L200,395.031l152-144.398v49.934L208.305,436.695c-4.496,4.266-12.113,4.266-16.609,0L48,300.559v-49.934l45.441,43.168
	l11.016-11.594L48,228.566v-57.543l152,144l152-144V228.566z"/>
<path fill="#328343" d="M146.32,204.945L200,180.602l53.68,24.344l-5.422-61.09l38.184-45.664l-56.48-13.352L200,31.719
	l-29.969,53.129l-56.48,13.352l38.184,45.664L146.32,204.945z M142.449,107.809l38.086-9.008L200,64.281l19.473,34.512l38.086,9.008
	l-25.816,30.863l3.578,40.383L200,163.039l-35.32,16.016l3.578-40.383L142.449,107.809z"/>
</svg>
