<?xml version="1.0" encoding="utf-8"?>
<!-- Generator: Adobe Illustrator 16.0.0, SVG Export Plug-In . SVG Version: 6.00 Build 0)  -->
<!DOCTYPE svg PUBLIC "-//W3C//DTD SVG 1.1//EN" "http://www.w3.org/Graphics/SVG/1.1/DTD/svg11.dtd">
<svg version="1.1" id="Capa_1" xmlns="http://www.w3.org/2000/svg" xmlns:xlink="http://www.w3.org/1999/xlink" x="0px" y="0px"
	 width="300px" height="300px" viewBox="0 0 300 300" enable-background="new 0 0 300 300" xml:space="preserve">
<g>
	<path fill="#5F6469" d="M158.17,189.945c5.205-0.405,9.95-3.061,13.03-7.295l46.815-64.72c1.435-1.985,1.219-4.725-0.521-6.465
		c-1.74-1.735-4.479-1.95-6.466-0.52L146.3,157.775c-4.22,3.07-6.875,7.814-7.28,13.02s1.48,10.301,5.165,13.984
		c3.355,3.361,7.879,5.221,12.584,5.221C157.234,190,157.7,189.98,158.17,189.945z M148.99,171.575
		c0.175-2.285,1.345-4.37,3.185-5.71L191.66,137.3l-28.555,39.476c-1.351,1.854-3.436,3.02-5.721,3.199
		c-2.275,0.15-4.51-0.64-6.135-2.265C149.64,176.096,148.81,173.855,148.99,171.575z"/>
	<path fill="#5F6469" d="M270.17,97.82c-0.05-0.105-0.05-0.215-0.105-0.32c-0.06-0.1-0.154-0.155-0.219-0.25
		c-5.056-8.67-11.035-16.735-17.826-24.045l10.74-10.735l7.07,7.07l21.21-21.215l-21.21-21.21l-21.215,21.21l7.074,7.075
		L244.95,66.135c-7.31-6.79-15.37-12.775-24.045-17.83c-0.095-0.065-0.15-0.16-0.25-0.22c-0.105-0.06-0.216-0.055-0.32-0.11
		c-15.465-8.91-32.84-14.845-51.364-17.02V25h7.5c6.895,0,12.5-5.605,12.5-12.5S183.359,0,176.465,0h-45
		c-6.895,0-12.5,5.605-12.5,12.5s5.605,12.5,12.5,12.5h7.5v5.78c-5.4,0.575-10.79,1.455-16.12,2.675
		c-2.69,0.615-4.375,3.3-3.755,5.99c0.615,2.69,3.3,4.38,5.99,3.755c4.6-1.055,9.245-1.85,13.9-2.385l5.365-0.415
		c1.64-0.125,3.15-0.215,4.62-0.285V50c0,2.765,2.235,5,5,5c2.766,0,5-2.235,5-5v-9.85c18.805,0.865,36.525,5.915,52.28,14.225
		l-4.931,8.535c-1.379,2.395-0.56,5.45,1.83,6.83c0.785,0.455,1.646,0.67,2.496,0.67c1.729,0,3.409-0.895,4.334-2.5l4.916-8.515
		c15.645,9.925,28.935,23.215,38.859,38.86l-8.516,4.915c-2.385,1.38-3.205,4.435-1.819,6.83c0.931,1.605,2.604,2.5,4.335,2.5
		c0.85,0,1.71-0.215,2.495-0.67l8.534-4.93c8.426,15.98,13.49,33.99,14.246,53.095h-9.875c-2.766,0-5,2.235-5,5s2.234,5,5,5h9.875
		c-0.756,19.104-5.82,37.114-14.246,53.095l-8.534-4.93c-2.39-1.381-5.45-0.57-6.83,1.83c-1.38,2.395-0.56,5.449,1.83,6.83
		l8.515,4.914c-9.925,15.646-23.215,28.936-38.859,38.861l-4.916-8.516c-1.385-2.4-4.449-3.215-6.83-1.83
		c-2.395,1.38-3.215,4.439-1.829,6.83l4.93,8.535c-15.755,8.31-33.476,13.359-52.28,14.225V280c0-2.766-2.234-5-5-5
		c-2.765,0-5,2.234-5,5v9.88c-7.985-0.274-15.995-1.274-23.88-3.085c-2.69-0.645-5.375,1.064-5.99,3.755
		c-0.62,2.69,1.065,5.375,3.755,5.99c9.98,2.3,20.175,3.46,30.291,3.46c0.244,0,0.479-0.016,0.725-0.02
		c0.035,0,0.061,0.02,0.09,0.02c0.04,0,0.075-0.025,0.115-0.025c24.035-0.164,46.585-6.654,66.095-17.865
		c0.155-0.069,0.32-0.104,0.47-0.194c0.101-0.06,0.155-0.155,0.25-0.22c20.195-11.771,37.07-28.625,48.865-48.805
		c0.096-0.136,0.215-0.24,0.301-0.391c0.06-0.105,0.055-0.215,0.104-0.32c11.42-19.8,17.985-42.729,17.985-67.18
		S281.585,117.62,270.17,97.82z M269.825,41.255l7.069,7.07l-7.069,7.075l-7.075-7.075L269.825,41.255z M148.965,30.105V15h-17.5
		c-1.375,0-2.5-1.125-2.5-2.5s1.125-2.5,2.5-2.5h45c1.375,0,2.5,1.125,2.5,2.5s-1.125,2.5-2.5,2.5h-17.5v15.105
		c-1.74-0.07-3.4-0.105-5-0.105c-0.14,0-0.3,0.01-0.439,0.01c-0.125,0-0.25-0.01-0.375-0.01c-0.82,0-1.641,0.055-2.461,0.07
		C150.11,30.085,149.565,30.08,148.965,30.105z"/>
	<path fill="#5F6469" d="M108.965,70h-25c-2.765,0-5,2.235-5,5s2.235,5,5,5h25c2.765,0,5-2.235,5-5S111.73,70,108.965,70z"/>
	<path fill="#5F6469" d="M108.965,105h-50c-2.765,0-5,2.235-5,5s2.235,5,5,5h50c2.765,0,5-2.235,5-5S111.73,105,108.965,105z"/>
	<path fill="#5F6469" d="M108.965,140h-75c-2.765,0-5,2.235-5,5s2.235,5,5,5h75c2.765,0,5-2.235,5-5S111.73,140,108.965,140z"/>
	<path fill="#5F6469" d="M108.965,175h-95c-2.765,0-5,2.234-5,5s2.235,5,5,5h95c2.765,0,5-2.234,5-5S111.73,175,108.965,175z"/>
	<path fill="#5F6469" d="M108.965,210h-65c-2.765,0-5,2.234-5,5s2.235,5,5,5h65c2.765,0,5-2.234,5-5S111.73,210,108.965,210z"/>
	<path fill="#5F6469" d="M108.965,245h-35c-2.765,0-5,2.234-5,5s2.235,5,5,5h35c2.765,0,5-2.234,5-5S111.73,245,108.965,245z"/>
</g>
</svg>
